External Loads File
version=1
nRows=31
nColumns=13
Range=5.000000e-03-10 seconds
endheader
time 	forceRightX 	forceRightY 	forceRightZ 	pointRightX 	pointRightY 	pointRightZ 	forceLeftX 	forceLeftY 	forceLeftZ 	pointLeftX 	pointLeftY 	pointLeftZ 		
7.505000 2.784021 158.068635 -0.000000 0.361728 0.455047 -0.108487 41.972433 242.063653 -0.000000 0.134429 0.188816 -0.344723
7.510000 3.911237 158.937614 -0.000000 0.364597 0.451635 -0.108460 37.043538 232.705265 -0.000000 0.131802 0.191871 -0.344807
7.515000 5.005177 159.266448 -0.000000 0.367330 0.448141 -0.108450 32.309859 223.980173 -0.000000 0.129253 0.194753 -0.344812
7.520000 6.109434 159.119382 -0.000000 0.369963 0.444672 -0.108428 28.021612 216.031380 -0.000000 0.126790 0.197734 -0.344782
7.525000 7.421421 158.548257 -0.000000 0.372494 0.440567 -0.108396 24.603388 208.910749 -0.000000 0.124451 0.200860 -0.344858
7.530000 8.520615 157.626787 -0.000000 0.374926 0.436871 -0.108358 21.635643 202.705882 -0.000000 0.122205 0.203977 -0.344862
7.535000 9.518159 156.407844 -0.000000 0.377303 0.433223 -0.108285 19.394681 197.375142 -0.000000 0.120044 0.207190 -0.344909
7.540000 10.411659 154.959459 -0.000000 0.379512 0.429378 -0.108155 17.962313 192.890523 -0.000000 0.117894 0.210452 -0.344867
7.545000 11.195225 153.367403 -0.000000 0.381762 0.425498 -0.108099 17.367002 189.232581 -0.000000 0.115819 0.213881 -0.344918
7.550000 11.881035 151.722145 -0.000000 0.384098 0.421486 -0.108167 17.611971 186.374468 -0.000000 0.113788 0.217367 -0.344915
7.555000 12.356107 150.104571 -0.000000 0.386271 0.417525 -0.108100 18.519372 184.271207 -0.000000 0.111853 0.220952 -0.344902
7.560000 12.774911 148.530785 -0.000000 0.388396 0.413377 -0.108021 20.245747 182.803998 -0.000000 0.109936 0.224651 -0.344932
7.565000 13.048320 146.990538 -0.000000 0.390438 0.409154 -0.107930 22.659285 181.842597 -0.000000 0.108100 0.228452 -0.344895
7.570000 13.091051 145.452980 -0.000000 0.392413 0.404923 -0.107912 25.600489 181.218394 -0.000000 0.106391 0.232320 -0.344886
7.575000 12.947285 143.888668 -0.000000 0.394294 0.400550 -0.107819 28.986389 180.715028 -0.000000 0.104736 0.236308 -0.344859
7.580000 12.511176 142.312897 -0.000000 0.396052 0.396180 -0.107734 32.448958 180.157946 -0.000000 0.103203 0.240337 -0.344949
7.585000 11.837576 140.753702 -0.000000 0.397744 0.391810 -0.107658 35.756273 179.400800 -0.000000 0.101764 0.244372 -0.344941
7.590000 11.032133 139.247815 -0.000000 0.399347 0.387439 -0.107640 38.730249 178.357618 -0.000000 0.100440 0.248463 -0.344928
7.595000 10.180227 137.831016 -0.000000 0.400790 0.383038 -0.107588 41.210296 177.010593 -0.000000 0.099218 0.252519 -0.345004
7.600000 9.416920 136.520806 -0.000000 0.402011 0.378641 -0.107650 43.185200 175.364295 -0.000000 0.098102 0.256641 -0.344937
7.605000 8.793399 135.322476 -0.000000 0.403231 0.374351 -0.107704 44.637127 173.461008 -0.000000 0.097071 0.260743 -0.344975
7.610000 8.399282 134.223269 -0.000000 0.404305 0.369976 -0.107687 45.694168 171.334907 -0.000000 0.096201 0.264824 -0.344902
7.615000 8.230682 133.209436 -0.000000 0.405290 0.365653 -0.107595 46.460666 169.056543 -0.000000 0.095452 0.268947 -0.344975
7.620000 8.261804 132.270068 -0.000000 0.406149 0.361322 -0.107603 47.105145 166.707892 -0.000000 0.094807 0.273058 -0.344993
7.625000 8.433452 131.399927 -0.000000 0.406873 0.356995 -0.107540 47.798232 164.371507 -0.000000 0.094289 0.277149 -0.345003
7.630000 8.671313 130.594171 -0.000000 0.407579 0.352653 -0.107407 48.657395 162.105406 -0.000000 0.093846 0.281116 -0.345013
7.635000 8.939024 129.842641 -0.000000 0.408102 0.348364 -0.107322 49.764640 159.919839 -0.000000 0.093561 0.285146 -0.344972
7.640000 9.226386 129.135295 -0.000000 0.408871 0.344081 -0.107313 51.152643 157.796110 -0.000000 0.093362 0.289228 -0.344976
7.645000 9.444570 128.480328 -0.000000 0.409127 0.339770 -0.107100 52.699958 155.747357 -0.000000 0.093248 0.293372 -0.345065
7.650000 9.524432 127.905891 -0.000000 0.409150 0.335463 -0.107207 54.258963 153.795450 -0.000000 0.093234 0.297438 -0.345173
7.655000 9.549065 127.445952 -0.000000 0.409240 0.331119 -0.107135 55.806388 151.916327 -0.000000 0.093298 0.301520 -0.345170
